/* XPM */
static const char *collect[] = {
/* columns rows colors chars-per-pixel */
"64 64 8 1 ",
"  c #231C19",
". c #032659",
"X c #AF101B",
"o c #DD3013",
"O c #997D57",
"+ c #F99C0B",
"@ c #1950C0",
"# c #C3AA83",
/* pixels */
"@@@@@@@@@@@@@@@@@@@@@@@@....@@@@@@@@@@@@@@@@@@@@....@@@@@@@@@@@@",
"@@@@@@@@@@@@@@@@@@@@@@@@....@@@@@@@@@@@@@@@@@@@@....@@@@@@@@@@@@",
"@@@@@@@@@@@@@@@@@@@@@@@@....@@@@@@@@@@@@@@@@@@@@....@@@@@@@@@@@@",
"@@@@@@@@@@@@@@@@@@@@@@@@....@@@@@@@@@@@@@@@@@@@@....@@@@@@@@@@@@",
"@@@@@@@@@@@@@@@@@@@@@@@@....@@@@@@@@@@@@@@@@@@@@....@@@@@@@@@@@@",
"@@@@@@@@@@@@@@@@@@@@@@@@....@@@@@@@@@@@@@@@@@@@@....@@@@@@@@@@@@",
"@@@@@@@@@@@@@@@@@@@@@@@@....@@@@@@@@@@@@@@@@@@@@....@@@@@@@@@@@@",
"@@@@@@@@@@@@@@@@@@@@@                      @@@@@....@@@@@@@@@@@@",
"@@@@@@@@@@@@@@@@@@@@@                      @........@@@@@@@@@@@@",
"@@@@@@@@@@@@@@@@@@@@@                      @........@@@@@@@@@@@@",
"@@@@@@@@@@@@@@       ++++++++++++++++++++++       ..@@@@@@@@@@@@",
"@@@@@@@@@@@@@@       ++++++++++++++++++++++       ..@@@@@@@@@@@@",
"@@@@@@@@@@@@@@       ++++++++++++++++++++++       ..@@@@@@@@@@@@",
"@@@@@@@@@@@@@@       ++++++++++++++++++++++       ..@@@@@@@@@@@@",
"@@@@@@@@@@@   ++++++++++++++++++++++++++++++++++++   @@@@@@@@@@@",
"@@@@@@@@@@@   ++++++++++++++++++++++++++++++++++++   @@@@@@@@@@@",
"@@@@@@@@@@@   ++++++++++++++++++++++++++++++++++++   ...@@@@@@@@",
"@@@@@@@@@@@   ++++++++++++++++++++++++++++++++++++   ...@@@@@@@@",
"@@@@@@@    +++ooooooooooo+++++++oooooooooooooooooo+++    @@@@@@@",
"@@@@@@@    +++ooooooooooo+++++++oooooooooooooooooo+++    @@@@@@@",
"@@@@@@@    +++ooooooooooo+++++++oooooooooooooooooo+++    .......",
"@@@    ++++oooooooooooooo+++++++oooo++++++++++ooooooo++++    ...",
"@@@    ++++oooooooooooooo+++++++oooo++++++++++ooooooo++++    ...",
"@@@    ++++oooooooooooooo+++++++oooo++++++++++ooooooo++++    ...",
"...    ++++oooooooooooooo+++++++oooo++++++++++ooooooo++++    ...",
"...    ++++ooooooo+++ooooooooooooooo++++++++++ooooooo++++    ...",
"...    ++++ooooooo+++ooooooooooooooo++++++++++ooooooo++++    ...",
"...    ++++ooooooo+++ooooooooooooooo++++++++++ooooooo++++    ...",
"...    ++++oooooooooooooooooXXXXXXXX++++++++++ooooooo++++    ...",
"...    ++++oooooooooooooooooXXXXXXXX++++++++++ooooooo++++    ...",
"...    ++++oooooooooooooooooXXXXXXXX++++++++++ooooooo++++    ...",
"...    ++++oooooooooooooooooXXXXXXXX++++++++++ooooooo++++    ...",
"...    XXXXoooooooXXXXXXXoooXXXXXXXXoooooooooooooooooXXXX    ...",
"...    XXXXoooooooXXXXXXXoooXXXXXXXXoooooooooooooooooXXXX    ...",
"...    XXXXoooooooXXXXXXXoooXXXXXXXXoooooooooooooooooXXXX    ...",
"...    XXXXXXXooooXXXXXXXooooooooooooooXXXXoooooooXXXXXXX    ...",
"...    XXXXXXXooooXXXXXXXooooooooooooooXXXXoooooooXXXXXXX    ...",
"...    XXXXXXXooooXXXXXXXooooooooooooooXXXXoooooooXXXXXXX    ...",
"...    XXXXXXXooooXXXXXXXooooooooooooooXXXXoooooooXXXXXXX    ...",
"....@@@    XXXXXXXXXXXXXXXXXXXXXXXXXXXXXXXXXXXXXXXXXX    @@@....",
"....@@@    XXXXXXXXXXXXXXXXXXXXXXXXXXXXXXXXXXXXXXXXXX    .......",
"....@@@    XXXXXXXXXXXXXXXXXXXXXXXXXXXXXXXXXXXXXXXXXX    .......",
"....@@@    XXXXXXXXXXXXXXXXXXXXXXXXXXXXXXXXXXXXXXXXXX    .......",
"....@@@@@@@                                          @@@........",
"....@@@@@@@                                          ...@@@@....",
"....@@@@@@@                                          ...@@@@....",
"....@@@@@@@@@@@@@@   OOOOOOOOOOOOOOOOOOOOOO   @@@@@@....@@@@....",
"....@@@@@@@@@@@@@@   OOOOOOOOOOOOOOOOOOOOOO   @@@@@@....@@@@....",
"........@@@@@@@@@@   OOOOOOOOOOOOOOOOOOOOOO   ..................",
"........@@@@@@@@@@   OOOOOOOOOOOOOOOOOOOOOO   ..................",
"........@@@@@@           ##############OOOO       ..............",
"........@@@@@@           ##############OOOO       ..............",
"..............           ##############OOOO       ..............",
"...........   OOOO#######   ########OOOOOOO   ####   ...........",
"...........   OOOO#######   ########OOOOOOO   ####   ...........",
"...........   OOOO#######   ########OOOOOOO   ####   ...........",
"...........   OOOO#######   ########OOOOOOO   ####   ...........",
"...........   OOOOOOOOOOO   OOOOOOOOOOOOOOO   OOOO   ...........",
"...........   OOOOOOOOOOO   OOOOOOOOOOOOOOO   OOOO   ...........",
"...........   OOOOOOOOOOO   OOOOOOOOOOOOOOO   OOOO   ...........",
"..............                                    ..............",
"..............                                    ..............",
"..............                                    ..............",
"..............                                    .............."
};
