/* XPM */
static char *_17ba829eeb44f3aa8094c6a65524752V2sPWGkc6lMFmz1C[] = {
/* columns rows colors chars-per-pixel */
"64 64 6 1 ",
"  c #120C0A",
". c #67332D",
"X c #032659",
"o c #B66B3A",
"O c #1950C0",
"+ c #F3CF95",
/* pixels */
"OOOOOOOOOOOOOOOOOOOOOOOOXXXXOOOOOOOOOOOOOOOOOOOOXXXXOOOOOOOOOOOO",
"OOOOOOOOOOOOOOOOOOOOOOOOXXXXOOOOOOOOOOOOOOOOOOOOXXXXOOOOOOOOOOOO",
"OOOOOOOOOOOOOOOOOOOOOOOOXXXXOOOOOOOOOOOOOOOOOOOOXXXXOOOOOOOOOOOO",
"OOOOOOOOOOOOOOOOOOOOOOOOXXXXOOOOOOOOOOOOOOOOOOOOXXXXOOOOOOOOOOOO",
"OOOOOOOOOOOOOOOOOOOOOOO                                   OOOOOO",
"OOOOOOOOOOOOOOOOOOOOOOO                                   OOOOOO",
"OOOOOOOOOOOOOOOOOOOOOOO                                   OOOOOO",
"OOOOOOOOOOOOOOOOOOOOOOO                                   OOOOOO",
"OOOOOOOOOOOOOOOOOOOOOOO                                   OOOOOO",
"OOOOOO                 +++++++++++++++++++++++++++++++++++    OO",
"OOOOOO                 +++++++++++++++++++++++++++++++++++    OO",
"OOOOOO                 +++++++++++++++++++++++++++++++++++    OO",
"OOOOOO                 +++++++++++++++++++++++++++++++++++    OO",
"OO    +++++++++++++++++ooooo        ooooooooooooo+++++++++    OO",
"OO    +++++++++++++++++ooooo        ooooooooooooo+++++++++    OO",
"OO    +++++++++++++++++ooooo        ooooooooooooo+++++++++    OO",
"OO    +++++++++++++++++ooooo        ooooooooooooo+++++++++    OO",
"OO    +++++++++oooooooo     ++++++++     oooooooooooo+++++    OO",
"OO    +++++++++oooooooo     ++++++++     oooooooooooo+++++    OO",
"OO    +++++++++oooooooo     ++++++++     oooooooooooo+++++    OO",
"OO    +++++++++oooooooo     ++++++++     oooooooooooo+++++    XX",
"OO    +++++oooooooooooo     ++++++++     oooooooooooo+++++    XX",
"OO    +++++oooooooooooo     ++++++++     oooooooooooo+++++    XX",
"OO    +++++oooooooooooo     ++++++++     oooooooooooo+++++    XX",
"XX    +++++oooooooooooo     ++++++++     oooooooooooo+++++    XX",
"XX    +++++oooooooooooo     ++++++++     oooooooooooo+++++    XX",
"XX    +++++ooooooooooooooooo        ooooooooooooooooo.....    XX",
"XX    +++++ooooooooooooooooo        ooooooooooooooooo.....    XX",
"XX    +++++ooooooooooooooooo        ooooooooooooooooo.....    XX",
"XX    +++++ooooooooooooooooo        ooooooooooooooooo.....    XX",
"XX    .....oooooooooooo     ++++++++     oooooooo.........    XX",
"XX    .....oooooooooooo     ++++++++     oooooooo.........    XX",
"XX    .....oooooooooooo     ++++++++     oooooooo.........    XX",
"XX    .....oooooooooooo     ++++++++     oooooooo.........    XX",
"XX    .........ooooooooooooo        ......................    XX",
"XX    .........ooooooooooooo        ......................    XX",
"XX    .........ooooooooooooo        ......................    XX",
"XX    .........ooooooooooooo        ......................    XX",
"XX    .................     oooo....                      OOXXXX",
"XX    .................     oooo....                      OOXXXX",
"XX    .................     oooo....                      XXXXXX",
"XX    .................     oooo....                      XXXXXX",
"XX    .................     oooo....                      XXXXXX",
"XXXXOO                      oooo....     OOOOOOOOOOOOOOOXXXXXXXX",
"XXXXOO                      oooo....     OOOOOOOOOOOXXXXOOOOXXXX",
"XXXXOO                      oooo....     OOOOOOOOOOOXXXXOOOOXXXX",
"XXXXOO                      oooo....     OOOOOOOOOOOXXXXOOOOXXXX",
"XXXXOOOOOOOOOOOOOOOOOOO     oooo.........    OOOOOOOXXXXOOOOXXXX",
"XXXXXXXXOOOOOOOOOOOOOOO     oooo.........    XXXXXXXXXXXXXXXXXXX",
"XXXXXXXXOOOOOOOOOOOOOOO     oooo.........    XXXXXXXXXXXXXXXXXXX",
"XXXXXXXXOOOOOOOOOOOOOOO     oooo.........    XXXXXXXXXXXXXXXXXXX",
"XXXXXXXXOOOOOOOOOOOOOOOOXXXX    oooo.....    XXXXXXXXXXXXXXXXXXX",
"XXXXXXXXXXXXXXXXXXXXXXXXXXXX    oooo.....    XXXXXXXXXXXXXXXXXXX",
"XXXXXXXXXXXXXXXXXXXXXXXXXXXX    oooo.....    XXXXXXXXXXXXXXXXXXX",
"XXXXXXXXXXXXXXXXXXXXXXXXXXXX    oooo.....    XXXXXXXXXXXXXXXXXXX",
"XXXXXXXXXXXXXXXXXXXXXXXXXXXX    oooo.....    XXXXXXXXXXXXXXXXXXX",
"XXXXXXXXXXXXXXXXXXXXXXXXXXXX    oooo.....    XXXXXXXXXXXXXXXXXXX",
"XXXXXXXXXXXXXXXXXXXXXXXXXXXX    oooo.....    XXXXXXXXXXXXXXXXXXX",
"XXXXXXXXXXXXXXXXXXXXXXXXXXXX    oooo.....    XXXXXXXXXXXXXXXXXXX",
"XXXXXXXXXXXXXXXXXXXXXXXXXXXX    oooo.....    XXXXXXXXXXXXXXXXXXX",
"XXXXXXXXXXXXXXXXXXXXXXXXXXXX    oooo.....    XXXXXXXXXXXXXXXXXXX",
"XXXXXXXXXXXXXXXXXXXXXXXXXXXX    oooo.....    XXXXXXXXXXXXXXXXXXX",
"XXXXXXXXXXXXXXXXXXXXXXXXXXXX    oooo.....    XXXXXXXXXXXXXXXXXXX",
"XXXXXXXXXXXXXXXXXXXXXXXXXXXX    oooo.....    XXXXXXXXXXXXXXXXXXX"
};
