/* XPM */
static const char *floor[] = {
/* columns rows colors chars-per-pixel */
"64 64 2 1 ",
"  c #032659",
". c #1950C0",
/* pixels */
"........................    ....................    ............",
"........................    ....................    ............",
"........................    ....................    ............",
"........................    ....................    ............",
"........................    ....................    ............",
"........................    ....................    ............",
"........................    ....................    ............",
"........................    ....................    ............",
"........................        ............        ............",
"........................        ............        ............",
"........................        ............        ............",
"........................        ............        ............",
"........................                            ............",
"........................                            ............",
"........................                            ............",
"........................                            ............",
"....................    ........                        ........",
"....................    ........                        ........",
"....................    ........                        ........",
"....................    ........                        ........",
"................        ........        ............            ",
"................        ........        ............            ",
"................        ........        ............            ",
"................        ........        ............            ",
"                                    ....................        ",
"                                    ....................        ",
"                                    ....................        ",
"                                    ....................        ",
"        ................        ............................    ",
"        ................        ............................    ",
"        ................        ............................    ",
"        ................        ............................    ",
"    ........................    ............................    ",
"    ........................    ............................    ",
"    ........................    ............................    ",
"    ........................    ............................    ",
"    ........................    ............................    ",
"    ........................    ............................    ",
"    ........................    ............................    ",
"    ........................    ............................    ",
"    ........................        ....................        ",
"    ........................        ....................        ",
"    ........................        ....................        ",
"    ........................        ....................        ",
"    ........................            ............    ....    ",
"    ........................            ............    ....    ",
"    ........................            ............    ....    ",
"    ........................            ............    ....    ",
"        ................        ....                            ",
"        ................        ....                            ",
"        ................        ....                            ",
"        ................        ....                            ",
"                                                                ",
"                                                                ",
"                                                                ",
"                                                                ",
"                                                                ",
"                                                                ",
"                                                                ",
"                                                                ",
"                                                                ",
"                                                                ",
"                                                                ",
"                                                                "
};
