/* XPM */
static const char *player[] = {
/* columns rows colors chars-per-pixel */
"64 64 6 1 ",
"  c #161320",
". c #032659",
"X c #6DA200",
"o c #BAD200",
"O c #1950C0",
"+ c #F3F1E2",
/* pixels */
"OOOOOOOOOOOOOOOOOOOOOOOO....OOOOOOOOOOOOOOOOOOOO....OOOOOOOOOOOO",
"OOOOOOOOOOOOOOOOOOOOOOOO....OOOOOOOOOOOOOOOOOOOO....OOOOOOOOOOOO",
"OOOOOOOOOOOOOOOOOOOOOOOO....OOOOOOOOOOOOOOOOOOOO....OOOOOOOOOOOO",
"OOOOOOOOOOOOOOOOOOOOOOOO....OOOOOOOOOOOOOOOOOOOO....OOOOOOOOOOOO",
"OOOOOOOOOOOOOOOOOOOOOOOO....OOOOOOOOOOOOOOOOOOOO....OOOOOOOOOOOO",
"OOOOOOOOOOOOOOOOOOOOOOOO....OOOOOOOOOOOOOOOOOOOO....OOOOOOOOOOOO",
"OOOOOOOOO                                              OOOOOOOOO",
"OOOOOOOOO                                              OOOOOOOOO",
"OOOOOOOOO                                              OOOOOOOOO",
"OOOOOOOOO                                              OOOOOOOOO",
"OOOOOOOOO                                              OOOOOOOOO",
"OOOOOOOOO     +++++++++++++XXXXXXXXXXXXXXXXXXXXXXX     OOOOOOOOO",
"OOOOOOOOO     +++++++++++++XXXXXXXXXXXXXXXXXXXXXXX     OOOOOOOOO",
"OOOOOOOOO     +++++++++++++XXXXXXXXXXXXXXXXXXXXXXX     OOOOOOOOO",
"OOOOOOOOO     +++++++++++++XXXXXXXXXXXXXXXXXXXXXXX     OOOOOOOOO",
"OOOOOOOOO     ++++ooooooooooooooooooooooooooooXXXX     OOOOOOOOO",
"OOOOOOOOO     ++++ooooooooooooooooooooooooooooXXXX     .OOOOOOOO",
"OOOOOOOOO     ++++ooooooooooooooooooooooooooooXXXX     .OOOOOOOO",
"OOOOOOOOO     ++++ooooooooooooooooooooooooooooXXXX     .OOOOOOOO",
"OOOOOOOOO     ++++ooooooooooooooooooooooooooooXXXX     .OOOOOOOO",
"OOOOOOOOO     XXXXooooo         oooooooooooooo         .........",
"OOOOOOOOO     XXXXooooo         oooooooooooooo         .........",
"OOOOOOOOO     XXXXooooo         oooooooooooooo         .........",
"OOOOOOOOO     XXXXooooo         oooooooooooooo         .........",
".........     XXXXooooo         oooooooooooooo         O........",
".........     XXXXooooo         oooooooooooooo         O........",
".........     XXXXooooo         oooooooooooooo         O........",
".........     XXXXooooo         oooooooooooooo         O........",
"........O     XXXXooooo         oooooooooooooo         OOOOO....",
"........O     XXXXooooooooooooooooooooooooooooXXXX     OOOOO....",
"........O     XXXXooooooooooooooooooooooooooooXXXX     OOOOO....",
"........O     XXXXooooooooooooooooooooooooooooXXXX     OOOOO....",
"....OOOOO     XXXXooooooooooooooooooooooooooooXXXX     OOOOO....",
"....OOOOO     XXXXooooooooooooooooooooooooooooXXXX     OOOOO....",
"....OOOOO     XXXX     oooo     ooooo    ooooo         OOOOO....",
"....OOOOO     XXXX     oooo     ooooo    ooooo         OOOOO....",
"....OOOOO     XXXX     oooo     ooooo    ooooo         OOOOO....",
"....OOOOO     XXXX     oooo     ooooo    ooooo         OOOOO....",
"....OOOOO              oooo              ooooo         OOOOO....",
"....OOOOO              oooo              ooooo         OOOOO....",
"....OOOOO              oooo              ooooo         O........",
"....OOOOO              oooo              ooooo         O........",
"....OOOOO              oooo              ooooo         O........",
"....                                                        ....",
"....                                                        ....",
"....                                                        ....",
"....                                                        ....",
"....                                                        ....",
"         XXXXX                  ooooo             XXXXX         ",
"         XXXXX                  ooooo             XXXXX         ",
"         XXXXX                  ooooo             XXXXX         ",
"         XXXXX                  ooooo             XXXXX         ",
"    XXXXXXXXXXoooo     oooo     ooooo    ooooo    XXXXXXXXXX    ",
"    XXXXXXXXXXoooo     oooo     ooooo    ooooo    XXXXXXXXXX    ",
"    XXXXXXXXXXoooo     oooo     ooooo    ooooo    XXXXXXXXXX    ",
"    XXXXXXXXXXoooo     oooo     ooooo    ooooo    XXXXXXXXXX    ",
"    XXXXXXXXXXoooo     oooo     ooooo    ooooo    XXXXXXXXXX    ",
"    XXXXXXXXXXXXXXXXXXXXXXXXXXXXXXXXXXXXXXXXXXXXXXXXXXXXXXXX    ",
"    XXXXXXXXXXXXXXXXXXXXXXXXXXXXXXXXXXXXXXXXXXXXXXXXXXXXXXXX    ",
"    XXXXXXXXXXXXXXXXXXXXXXXXXXXXXXXXXXXXXXXXXXXXXXXXXXXXXXXX    ",
"    XXXXXXXXXXXXXXXXXXXXXXXXXXXXXXXXXXXXXXXXXXXXXXXXXXXXXXXX    ",
"                                                                ",
"                                                                ",
"                                                                "
};
