/* XPM */
static char *f9d42f5cb9144a48dac2a74373667cf7dDiljE8a7eYHfgDq[] = {
/* columns rows colors chars-per-pixel */
"64 64 2 1 ",
"  c #032659",
". c #1950C0",
/* pixels */
"........................    ....................    ............",
"........................    ....................    ............",
"........................    ....................    ............",
"........................    ....................    ............",
"........................    ....................    ............",
"........................    ....................    ............",
"........................    ....................    ............",
"........................    ....................    ............",
"........................        ............        ............",
"........................        ............        ............",
"........................        ............        ............",
"........................        ............        ............",
"........................                            ............",
"........................                            ............",
"........................                            ............",
"........................                            ............",
"....................    ........                        ........",
"....................    ........                        ........",
"....................    ........                        ........",
"....................    ........                        ........",
"................        ........        ............            ",
"................        ........        ............            ",
"................        ........        ............            ",
"................        ........        ............            ",
"                                    ....................        ",
"                                    ....................        ",
"                                    ....................        ",
"                                    ....................        ",
"        ................        ............................    ",
"        ................        ............................    ",
"        ................        ............................    ",
"        ................        ............................    ",
"    ........................    ............................    ",
"    ........................    ............................    ",
"    ........................    ............................    ",
"    ........................    ............................    ",
"    ........................    ............................    ",
"    ........................    ............................    ",
"    ........................    ............................    ",
"    ........................    ............................    ",
"    ........................        ....................        ",
"    ........................        ....................        ",
"    ........................        ....................        ",
"    ........................        ....................        ",
"    ........................            ............    ....    ",
"    ........................            ............    ....    ",
"    ........................            ............    ....    ",
"    ........................            ............    ....    ",
"        ................        ....                            ",
"        ................        ....                            ",
"        ................        ....                            ",
"        ................        ....                            ",
"                                                                ",
"                                                                ",
"                                                                ",
"                                                                ",
"                                                                ",
"                                                                ",
"                                                                ",
"                                                                ",
"                                                                ",
"                                                                ",
"                                                                ",
"                                                                "
};
