/* XPM */
static const char *wall[] = {
/* columns rows colors chars-per-pixel */
"64 64 7 1 ",
"  c #231C19",
". c #67332D",
"X c #0A7030",
"o c #B66B3A",
"O c #4DBD27",
"+ c #95D836",
"@ c #D89E58",
/* pixels */
"                                                                ",
"                                                                ",
"                                                                ",
"                                                                ",
"        ++++++++++++++++++++++++++++++++++++++++++++++++        ",
"        ++++++++++++++++++++++++++++++++++++++++++++++++        ",
"        ++++++++++++++++++++++++++++++++++++++++++++++++        ",
"        ++++++++++++++++++++++++++++++++++++++++++++++++        ",
"    ++++++++++++++++++++OOOOOOOOOOOOOOOO++++OOOO++++++++++++    ",
"    ++++++++++++++++++++OOOOOOOOOOOOOOOO++++OOOO++++++++++++    ",
"    ++++++++++++++++++++OOOOOOOOOOOOOOOO++++OOOO++++++++++++    ",
"    ++++++++++++++++++++OOOOOOOOOOOOOOOO++++OOOO++++++++++++    ",
"    ++++OOOO++++++++++++OOOO++++OOOOOOOOOOOOOOOOOOOO++++++++    ",
"    ++++OOOO++++++++++++OOOO++++OOOOOOOOOOOOOOOOOOOO++++++++    ",
"    ++++OOOO++++++++++++OOOO++++OOOOOOOOOOOOOOOOOOOO++++++++    ",
"    ++++OOOO++++++++++++OOOO++++OOOOOOOOOOOOOOOOOOOO++++++++    ",
"    ++++OOOO++++++++++++OOOOOOOOOOOOXXXXXXXXOOOOOOOOOOOO++++    ",
"    ++++OOOO++++++++++++OOOOOOOOOOOOXXXXXXXXOOOOOOOOOOOO++++    ",
"    ++++OOOO++++++++++++OOOOOOOOOOOOXXXXXXXXOOOOOOOOOOOO++++    ",
"    ++++OOOO++++++++++++OOOOOOOOOOOOXXXXXXXXOOOOOOOOOOOO++++    ",
"    XXXXOOOOOOOOOOOOOOOOOOOOOOOOOOOOXXXXXXXXOOOOOOOOOOOOXXXX    ",
"    XXXXOOOOOOOOOOOOOOOOOOOOOOOOOOOOXXXXXXXXOOOOOOOOOOOOXXXX    ",
"    XXXXOOOOOOOOOOOOOOOOOOOOOOOOOOOOXXXXXXXXOOOOOOOOOOOOXXXX    ",
"    XXXXOOOOOOOOOOOOOOOOOOOOOOOOOOOOXXXXXXXXOOOOOOOOOOOOXXXX    ",
"    XXXXXXXXOOOOOOOOOOOOXXXXOOOOOOOOOOOOOOOOOOOOOOOOXXXXXXXX    ",
"    XXXXXXXXOOOOOOOOOOOOXXXXOOOOOOOOOOOOOOOOOOOOOOOOXXXXXXXX    ",
"    XXXXXXXXOOOOOOOOOOOOXXXXOOOOOOOOOOOOOOOOOOOOOOOOXXXXXXXX    ",
"    XXXXXXXXOOOOOOOOOOOOXXXXOOOOOOOOOOOOOOOOOOOOOOOOXXXXXXXX    ",
"        XXXXXXXXXXXXXXXXXXXXXXXXXXXXXXXXXXXXXXXXXXXXXXXX        ",
"        XXXXXXXXXXXXXXXXXXXXXXXXXXXXXXXXXXXXXXXXXXXXXXXX        ",
"        XXXXXXXXXXXXXXXXXXXXXXXXXXXXXXXXXXXXXXXXXXXXXXXX        ",
"        XXXXXXXXXXXXXXXXXXXXXXXXXXXXXXXXXXXXXXXXXXXXXXXX        ",
"                                                                ",
"                                                                ",
"                                                                ",
"                                                                ",
"    oooo................................................oooo    ",
"    oooo................................................oooo    ",
"    oooo................................................oooo    ",
"    oooo................................................oooo    ",
"    @@@@oooo@@@@oooooooooooooooooooooooooooooooooooo@@@@@@@@    ",
"    @@@@oooo@@@@oooooooooooooooooooooooooooooooooooo@@@@@@@@    ",
"    @@@@oooo@@@@oooooooooooooooooooooooooooooooooooo@@@@@@@@    ",
"    @@@@oooo@@@@oooooooooooooooooooooooooooooooooooo@@@@@@@@    ",
"    @@@@oooooooooooooooooooooooooooo........oooooooooooo@@@@    ",
"    @@@@oooooooooooooooooooooooooooo........oooooooooooo@@@@    ",
"    @@@@oooooooooooooooooooooooooooo........oooooooooooo@@@@    ",
"    @@@@oooooooooooooooooooooooooooo........oooooooooooo@@@@    ",
"    @@@@oooooooo........oooooooooooo........oooo....oooo@@@@    ",
"    @@@@oooooooo........oooooooooooo........oooo....oooo@@@@    ",
"    @@@@oooooooo........oooooooooooo........oooo....oooo@@@@    ",
"    @@@@oooooooo........oooooooooooo........oooo....oooo@@@@    ",
"    ....oooooooo........oooooooooooooooooooooooooooooooo....    ",
"    ....oooooooo........oooooooooooooooooooooooooooooooo....    ",
"    ....oooooooo........oooooooooooooooooooooooooooooooo....    ",
"    ....oooooooo........oooooooooooooooooooooooooooooooo....    ",
"        ................................................        ",
"        ................................................        ",
"        ................................................        ",
"        ................................................        ",
"                                                                ",
"                                                                ",
"                                                                ",
"                                                                "
};
